<svg width="127" height="34" viewBox="0 0 127 34" fill="none" xmlns="http://www.w3.org/2000/svg">
<path d="M24.8328 15.9482V9.97702C24.8328 9.22576 24.2249 8.6179 23.4737 8.6179H18.1179C17.3666 8.6179 16.7589 8.01003 16.7589 7.25874V1.90408C16.7589 1.15279 16.1511 0.544922 15.3998 0.544922H1.35901C0.6078 0.544922 0 1.15279 0 1.90408V7.87514C0 8.62644 0.6078 9.2343 1.35901 9.2343H14.7852C15.5365 9.2343 16.1442 9.84218 16.1442 10.5934V15.3334C16.1442 16.0848 15.5365 16.6926 14.7852 16.6926H9.43112C8.67993 16.6926 8.07214 17.3004 8.07214 18.0517V23.4064C8.07214 24.1577 7.46434 24.7656 6.71311 24.7656H1.35901C0.6078 24.7656 0 25.3734 0 26.1248V32.0957C0 32.847 0.6078 33.4549 1.35901 33.4549H7.32945C8.08068 33.4549 8.68847 32.847 8.68847 32.0957V26.7411C8.68847 25.9898 9.29629 25.382 10.0475 25.382H14.7869C15.5382 25.382 16.146 25.9898 16.146 26.7411V32.0957C16.146 32.847 16.7537 33.4549 17.5049 33.4549H23.4755C24.2266 33.4549 24.8345 32.847 24.8345 32.0957V26.1248C24.8345 25.3734 24.2266 24.7656 23.4755 24.7656H18.1214C17.3702 24.7656 16.7623 24.1577 16.7623 23.4064V18.6664C16.7623 17.9151 17.3702 17.3074 18.1214 17.3074H23.4755C24.2266 17.3074 24.8345 16.6994 24.8345 15.9482H24.8328Z" fill="url(#paint0_radial_2962_7548)" style=""/>
<path d="M38.9148 27.9701V4.93311H47.3718C49.2146 4.93311 50.7283 5.25124 51.9129 5.8875C53.1195 6.50182 54.0189 7.34651 54.6112 8.42157C55.2035 9.47469 55.4997 10.6485 55.4997 11.9429C55.4997 13.3471 55.1268 14.6306 54.3809 15.7934C53.6569 16.9562 52.5162 17.8009 50.9586 18.3275L55.7301 27.9701H50.8928L46.6149 18.8869H43.1268V27.9701H38.9148ZM43.1268 15.7934H47.1085C48.5125 15.7934 49.5436 15.4533 50.2017 14.7732C50.8599 14.0931 51.1889 13.1935 51.1889 12.0746C51.1889 10.9776 50.8599 10.1 50.2017 9.44178C49.5656 8.78358 48.5235 8.45448 47.0756 8.45448H43.1268V15.7934ZM63.8007 27.9701L57.7129 4.93311H62.2211L66.3674 23.264L71.2376 4.93311H75.8774L80.6159 23.264L84.7622 4.93311H89.3033L83.051 27.9701H78.0492L73.4752 10.8898L68.7696 27.9701H63.8007ZM88.5613 27.9701L96.9858 4.93311H101.724L110.148 27.9701H105.673L103.83 22.6387H94.8468L92.9712 27.9701H88.5613ZM95.9986 19.3477H102.679L99.3221 9.77088L95.9986 19.3477ZM112.633 28.0725C112.291 28.0725 112.009 27.9653 111.785 27.7507C111.57 27.5361 111.463 27.2778 111.463 26.9755C111.463 26.6635 111.57 26.4002 111.785 26.1857C112.009 25.9711 112.291 25.8639 112.633 25.8639C112.974 25.8639 113.252 25.9711 113.466 26.1857C113.69 26.4002 113.803 26.6635 113.803 26.9755C113.803 27.2778 113.69 27.5361 113.466 27.7507C113.252 27.9653 112.974 28.0725 112.633 28.0725ZM116.351 19.589C116.009 19.589 115.727 19.4866 115.503 19.2819C115.288 19.0771 115.181 18.8187 115.181 18.5067C115.181 18.1946 115.288 17.9411 115.503 17.7461C115.727 17.5413 116.009 17.4389 116.351 17.4389C116.692 17.4389 116.97 17.5413 117.185 17.7461C117.409 17.9411 117.521 18.1946 117.521 18.5067C117.521 18.8187 117.409 19.0771 117.185 19.2819C116.97 19.4866 116.692 19.589 116.351 19.589ZM115.415 27.9701V20.7153H117.287V27.9701H115.415ZM122.721 28.1456C122.019 28.1456 121.386 27.9847 120.82 27.6629C120.264 27.3412 119.821 26.8975 119.489 26.3319C119.168 25.7566 119.007 25.0935 119.007 24.3427C119.007 23.5919 119.172 22.9337 119.504 22.3681C119.836 21.7928 120.279 21.3442 120.835 21.0224C121.401 20.7007 122.034 20.5398 122.736 20.5398C123.428 20.5398 124.052 20.7007 124.608 21.0224C125.174 21.3442 125.617 21.7928 125.939 22.3681C126.271 22.9337 126.436 23.5919 126.436 24.3427C126.436 25.0935 126.271 25.7566 125.939 26.3319C125.617 26.8975 125.174 27.3412 124.608 27.6629C124.042 27.9847 123.413 28.1456 122.721 28.1456ZM122.721 26.5221C123.209 26.5221 123.633 26.3417 123.994 25.9809C124.355 25.6104 124.535 25.0642 124.535 24.3427C124.535 23.6211 124.355 23.08 123.994 22.7191C123.633 22.3486 123.214 22.1633 122.736 22.1633C122.239 22.1633 121.81 22.3486 121.449 22.7191C121.098 23.08 120.923 23.6211 120.923 24.3427C120.923 25.0642 121.098 25.6104 121.449 25.9809C121.81 26.3417 122.234 26.5221 122.721 26.5221Z" fill="#2D3135" style="fill:#2D3135;fill:color(display-p3 0.1765 0.1922 0.2078);fill-opacity:1;"/>
<defs>
<radialGradient id="paint0_radial_2962_7548" cx="0" cy="0" r="1" gradientUnits="userSpaceOnUse" gradientTransform="translate(0 33.4549) scale(24.4691 23.962)">
<stop offset="0.23" stop-color="#5EE4C0" style="stop-color:#5EE4C0;stop-color:color(display-p3 0.3686 0.8941 0.7529);stop-opacity:1;"/>
<stop offset="0.52" stop-color="white" style="stop-color:white;stop-opacity:1;"/>
<stop offset="0.56" stop-color="#D3DBFB" style="stop-color:#D3DBFB;stop-color:color(display-p3 0.8275 0.8588 0.9843);stop-opacity:1;"/>
<stop offset="0.62" stop-color="#A5B5F7" style="stop-color:#A5B5F7;stop-color:color(display-p3 0.6471 0.7098 0.9686);stop-opacity:1;"/>
<stop offset="0.68" stop-color="#7D95F4" style="stop-color:#7D95F4;stop-color:color(display-p3 0.4902 0.5843 0.9569);stop-opacity:1;"/>
<stop offset="0.74" stop-color="#5C7AF1" style="stop-color:#5C7AF1;stop-color:color(display-p3 0.3608 0.4784 0.9451);stop-opacity:1;"/>
<stop offset="0.8" stop-color="#4366EF" style="stop-color:#4366EF;stop-color:color(display-p3 0.2627 0.4000 0.9373);stop-opacity:1;"/>
<stop offset="0.86" stop-color="#3157EE" style="stop-color:#3157EE;stop-color:color(display-p3 0.1922 0.3412 0.9333);stop-opacity:1;"/>
<stop offset="0.92" stop-color="#264EED" style="stop-color:#264EED;stop-color:color(display-p3 0.1490 0.3059 0.9294);stop-opacity:1;"/>
<stop offset="1" stop-color="#234CED" style="stop-color:#234CED;stop-color:color(display-p3 0.1373 0.2980 0.9294);stop-opacity:1;"/>
</radialGradient>
</defs>
</svg>
